<svg width="12" height="19" viewBox="0 0 12 19" fill="none" xmlns="http://www.w3.org/2000/svg">
<path fill-rule="evenodd" clip-rule="evenodd" d="M1.16365e-05 17.4163C7.838e-05 17.7294 0.0929748 18.0355 0.266958 18.2958C0.440942 18.5561 0.688201 18.759 0.977476 18.8788C1.26675 18.9986 1.58505 19.03 1.89214 18.9689C2.19924 18.9079 2.48133 18.7571 2.70276 18.5357L10.6194 10.6191C10.9163 10.3222 11.083 9.91951 11.083 9.49966C11.083 9.07982 10.9163 8.67717 10.6194 8.38025L2.70276 0.46358C2.48133 0.242215 2.19924 0.0914703 1.89215 0.030405C1.58505 -0.0306603 1.26675 0.000694848 0.977477 0.120506C0.688202 0.240317 0.440943 0.443204 0.266959 0.70352C0.0929756 0.963835 7.90995e-05 1.26989 1.23286e-05 1.583L1.16365e-05 17.4163Z" fill="#008BA7"/>
</svg>
